<?xml version="1.0"?>
<svg xmlns="http://www.w3.org/2000/svg" viewBox="1 -23 511.99994 511" width="512px" height="512px" class=""><g><script xmlns="" class="active-path" style="fill:null"/><path d="m503.550781 321.757812c-23.425781-32.96875-69.089843-41.464843-102.878906-19.207031l-46.140625 30.394531c4.746094-9.835937 7.414062-20.859374 7.414062-32.496093v-14.996094h-93.667968c-6.90625 0-9.957032-3.785156-16.949219-9.9375-39.238281-34.527344-99.476563-34.527344-138.710937 0l-45.378907 39.929687h-67.238281v149.976563h11.25 325.710938l175.039062-131.769531zm-176.617187 113.671876c-7.933594 0-293.144532 0-296.9375 0v-89.988282h48.5625l53.875-47.410156c27.9375-24.585938 71.136718-24.585938 99.078125 0 7.597656 6.6875 17.652343 17.414062 36.765625 17.414062h61.101562c-6.191406 17.460938-22.871094 29.996094-42.425781 29.996094h-60.867187v29.996094h118.464843l72.621094-47.835938c15.949219-10.507812 36.644531-9.480468 51.511719 1.113282zm0 0" data-original="#000000" class="active-path" fill="#FFFFFF"/><path d="m316.949219 225.460938c41.351562 0 74.988281-33.640626 74.988281-74.988282 0-13.160156-3.460938-26.113281-10.011719-37.457031l-64.976562-112.515625-64.972657 112.511719c-6.550781 11.34375-10.015624 24.296875-10.015624 37.460937 0 41.347656 33.640624 74.988282 74.988281 74.988282zm-38.996094-97.445313 38.996094-67.535156 39 67.535156c3.921875 6.789063 5.996093 14.554687 5.996093 22.457031 0 24.808594-20.1875 44.992188-44.996093 44.992188-24.808594 0-44.992188-20.183594-44.992188-44.992188 0-7.902344 2.074219-15.667968 5.996094-22.457031zm0 0" data-original="#000000" class="active-path" fill="#FFFFFF"/></g> </svg>
