<?xml version="1.0" encoding="iso-8859-1"?>
<!-- Generator: Adobe Illustrator 19.0.0, SVG Export Plug-In . SVG Version: 6.00 Build 0)  -->
<svg version="1.1" id="Capa_1" xmlns="http://www.w3.org/2000/svg" xmlns:xlink="http://www.w3.org/1999/xlink" x="0px" y="0px"
	 viewBox="0 0 512.869 512.869" style="enable-background:new 0 0 512.869 512.869;" xml:space="preserve">
<g>
	<g>
		<g>
			<path d="M408.803,208.869c26.966-84.151-19.391-174.228-103.542-201.194S131.033,27.066,104.067,111.217
				c-10.176,31.755-10.176,65.897,0,97.652H0.435v304h512v-80h-32v48h-448v-240h448v32h32v-64H408.803z M374.835,208.869h-73.344
				c1.895-5.124,2.891-10.537,2.944-16c0-26.51-21.49-48-48-48c-8.837,0-16-7.163-16-16s7.163-16,16-16h48v-32h-32v-32h-32v34.944
				c-24.946,8.786-38.045,36.132-29.259,61.077c6.76,19.192,24.911,32.017,45.259,31.979c8.837,0,16,7.163,16,16s-7.163,16-16,16
				h-118.4c-26.861-65.391,4.374-140.175,69.764-167.036s140.175,4.374,167.036,69.764
				C387.635,142.758,387.635,177.709,374.835,208.869z"/>
			<rect x="480.435" y="304.869" width="32" height="32"/>
			<rect x="480.435" y="368.869" width="32" height="32"/>
			<path d="M160.435,282.309c-29.508-18.293-68.26-9.202-86.553,20.307c-15.376,24.803-11.662,56.926,8.969,77.565l77.584,77.6
				l77.584-77.6c24.545-24.555,24.536-64.358-0.019-88.903C217.36,270.647,185.237,266.933,160.435,282.309z M215.395,313.893
				c12.055,12.059,12.055,31.605,0,43.664l-54.96,54.976l-54.96-54.976c-12.057-12.053-12.061-31.599-0.008-43.656
				c12.053-12.057,31.599-12.061,43.656-0.008l11.312,11.312l11.312-11.312C183.811,301.867,203.331,301.867,215.395,313.893z"/>
			<path d="M448.435,272.869h-160v96h160V272.869z M416.435,336.869h-96v-32h96V336.869z"/>
			<rect x="288.435" y="400.869" width="160" height="32"/>
		</g>
	</g>
</g>
<g>
</g>
<g>
</g>
<g>
</g>
<g>
</g>
<g>
</g>
<g>
</g>
<g>
</g>
<g>
</g>
<g>
</g>
<g>
</g>
<g>
</g>
<g>
</g>
<g>
</g>
<g>
</g>
<g>
</g>
</svg>
